<svg xmlns="http://www.w3.org/2000/svg" xmlns:xlink="http://www.w3.org/1999/xlink" width="1080" zoomAndPan="magnify" viewBox="0 0 810 809.999993" height="1080" preserveAspectRatio="xMidYMid meet" version="1.0"><defs><g/><clipPath id="318fd04e18"><path d="M 0.546875 0.71875 L 699.066406 0.71875 L 699.066406 699.238281 L 0.546875 699.238281 Z M 0.546875 0.71875 " clip-rule="nonzero"/></clipPath><clipPath id="a0eb4c760f"><path d="M 0.546875 349.980469 C 0.546875 542.871094 156.914062 699.238281 349.804688 699.238281 C 542.695312 699.238281 699.066406 542.871094 699.066406 349.980469 C 699.066406 157.089844 542.695312 0.71875 349.804688 0.71875 C 156.914062 0.71875 0.546875 157.089844 0.546875 349.980469 Z M 0.546875 349.980469 " clip-rule="nonzero"/></clipPath><clipPath id="07e171de1b"><path d="M 0.546875 0.71875 L 699.066406 0.71875 L 699.066406 699.238281 L 0.546875 699.238281 Z M 0.546875 0.71875 " clip-rule="nonzero"/></clipPath><clipPath id="dd1af337b6"><path d="M 0.546875 349.980469 C 0.546875 542.871094 156.914062 699.238281 349.804688 699.238281 C 542.695312 699.238281 699.066406 542.871094 699.066406 349.980469 C 699.066406 157.089844 542.695312 0.71875 349.804688 0.71875 C 156.914062 0.71875 0.546875 157.089844 0.546875 349.980469 Z M 0.546875 349.980469 " clip-rule="nonzero"/></clipPath><clipPath id="89a1ede522"><rect x="0" width="700" y="0" height="700"/></clipPath><clipPath id="b12e69c079"><path d="M 55.542969 58.933594 L 638 58.933594 L 638 641.066406 L 55.542969 641.066406 Z M 55.542969 58.933594 " clip-rule="nonzero"/></clipPath><clipPath id="e73a1389fe"><path d="M 637.679688 350.003906 C 637.679688 510.746094 507.359375 641.066406 346.613281 641.066406 C 185.859375 641.066406 55.542969 510.746094 55.542969 350.003906 C 55.542969 189.25 185.859375 58.933594 346.613281 58.933594 C 507.363281 58.933594 637.679688 189.25 637.679688 350.003906 Z M 637.679688 350.003906 " clip-rule="nonzero"/></clipPath><clipPath id="d71aa53947"><path d="M 0.542969 0.933594 L 582.761719 0.933594 L 582.761719 583.066406 L 0.542969 583.066406 Z M 0.542969 0.933594 " clip-rule="nonzero"/></clipPath><clipPath id="ef46b66287"><path d="M 582.679688 292.003906 C 582.679688 452.746094 452.359375 583.066406 291.613281 583.066406 C 130.859375 583.066406 0.542969 452.746094 0.542969 292.003906 C 0.542969 131.25 130.859375 0.933594 291.613281 0.933594 C 452.363281 0.933594 582.679688 131.25 582.679688 292.003906 Z M 582.679688 292.003906 " clip-rule="nonzero"/></clipPath><clipPath id="00f463794a"><rect x="0" width="583" y="0" height="584"/></clipPath><clipPath id="95af1db3c1"><path d="M 255 502 L 470 502 L 470 541 L 255 541 Z M 255 502 " clip-rule="nonzero"/></clipPath><clipPath id="04d72df848"><path d="M 407.519531 337.464844 L 570.492188 487.414062 L 418.621094 652.476562 L 255.648438 502.527344 Z M 407.519531 337.464844 " clip-rule="nonzero"/></clipPath><clipPath id="5d94c9ac8e"><path d="M 407.519531 337.464844 L 570.492188 487.414062 L 418.621094 652.476562 L 255.648438 502.527344 Z M 407.519531 337.464844 " clip-rule="nonzero"/></clipPath><clipPath id="827ce495bc"><path d="M 407.519531 337.464844 L 570.492188 487.414062 L 418.621094 652.476562 L 255.648438 502.527344 Z M 407.519531 337.464844 " clip-rule="nonzero"/></clipPath><clipPath id="0fb562a477"><path d="M 255 501 L 471 501 L 471 542 L 255 542 Z M 255 501 " clip-rule="nonzero"/></clipPath><clipPath id="367d39b785"><path d="M 407.519531 337.464844 L 570.492188 487.414062 L 418.621094 652.476562 L 255.648438 502.527344 Z M 407.519531 337.464844 " clip-rule="nonzero"/></clipPath><clipPath id="e4cfebae0f"><path d="M 407.519531 337.464844 L 570.492188 487.414062 L 418.621094 652.476562 L 255.648438 502.527344 Z M 407.519531 337.464844 " clip-rule="nonzero"/></clipPath><clipPath id="4394893955"><path d="M 407.519531 337.464844 L 570.492188 487.414062 L 418.621094 652.476562 L 255.648438 502.527344 Z M 407.519531 337.464844 " clip-rule="nonzero"/></clipPath><clipPath id="24a7d621b6"><path d="M 429 452 L 554 452 L 554 587 L 429 587 Z M 429 452 " clip-rule="nonzero"/></clipPath><clipPath id="46445cc807"><path d="M 407.519531 337.464844 L 570.492188 487.414062 L 418.621094 652.476562 L 255.648438 502.527344 Z M 407.519531 337.464844 " clip-rule="nonzero"/></clipPath><clipPath id="6a18c77211"><path d="M 407.519531 337.464844 L 570.492188 487.414062 L 418.621094 652.476562 L 255.648438 502.527344 Z M 407.519531 337.464844 " clip-rule="nonzero"/></clipPath><clipPath id="e79b86b40b"><path d="M 407.519531 337.464844 L 570.492188 487.414062 L 418.621094 652.476562 L 255.648438 502.527344 Z M 407.519531 337.464844 " clip-rule="nonzero"/></clipPath><clipPath id="7588475997"><path d="M 180.515625 119 L 524 119 L 524 581.34375 L 180.515625 581.34375 Z M 180.515625 119 " clip-rule="nonzero"/></clipPath><clipPath id="21243aeb8a"><rect x="0" width="591" y="0" height="83"/></clipPath><clipPath id="0d87304ee1"><rect x="0" width="700" y="0" height="700"/></clipPath></defs><rect x="-81" width="972" fill="#ffffff" y="-80.999999" height="971.999992" fill-opacity="1"/><rect x="-81" width="972" fill="#ffffff" y="-80.999999" height="971.999992" fill-opacity="1"/><g transform="matrix(1, 0, 0, 1, 52, 55)"><g clip-path="url(#0d87304ee1)"><g clip-path="url(#318fd04e18)"><g clip-path="url(#a0eb4c760f)"><g transform="matrix(1, 0, 0, 1, 0, 0.000000000000042633)"><g clip-path="url(#89a1ede522)"><g clip-path="url(#07e171de1b)"><g clip-path="url(#dd1af337b6)"><path fill="#f6f6f6" d="M 0.546875 699.238281 L 0.546875 0.71875 L 699.066406 0.71875 L 699.066406 699.238281 Z M 0.546875 699.238281 " fill-opacity="1" fill-rule="nonzero"/></g></g></g></g></g></g><g clip-path="url(#b12e69c079)"><g clip-path="url(#e73a1389fe)"><g transform="matrix(1, 0, 0, 1, 55, 58)"><g clip-path="url(#00f463794a)"><g clip-path="url(#d71aa53947)"><g clip-path="url(#ef46b66287)"><path fill="#baaea3" d="M 0.542969 0.933594 L 582.675781 0.933594 L 582.675781 583.066406 L 0.542969 583.066406 Z M 0.542969 0.933594 " fill-opacity="1" fill-rule="nonzero"/></g></g></g></g></g></g><g clip-path="url(#95af1db3c1)"><g clip-path="url(#04d72df848)"><g clip-path="url(#5d94c9ac8e)"><g clip-path="url(#827ce495bc)"><path fill="#000000" d="M 469.160156 536.613281 C 470.355469 529.257812 434.132812 519.617188 407.878906 522.253906 C 383.1875 518.53125 286.339844 503.980469 255.789062 502.429688 C 285.277344 510.496094 381.824219 526.9375 406.4375 531.113281 C 430.519531 541.816406 467.960938 543.972656 469.15625 536.613281 Z M 463.007812 535.382812 C 462.683594 537.363281 450.65625 537.078125 436.15625 534.757812 C 421.65625 532.433594 410.144531 528.945312 410.46875 526.964844 C 410.792969 524.980469 422.824219 525.25 437.324219 527.574219 C 451.824219 529.898438 463.332031 533.398438 463.007812 535.382812 Z M 463.007812 535.382812 " fill-opacity="1" fill-rule="evenodd"/></g></g></g></g><g clip-path="url(#0fb562a477)"><g clip-path="url(#367d39b785)"><g clip-path="url(#e4cfebae0f)"><g clip-path="url(#4394893955)"><path stroke-linecap="butt" transform="matrix(0.391668, 0.360368, -0.361337, 0.392721, 383.077912, 304.211535)" fill="none" stroke-linejoin="miter" d="M 414.679484 211.2555 C 406.974753 199.596 344.626152 232.25999 311.680003 269.205989 C 272.80403 295.400191 120.384401 398.212178 76.169847 434.835492 C 127.204338 408.545056 281.613294 308.721794 320.957701 283.251558 C 367.871497 267.456327 422.383782 222.925343 414.674083 211.260456 Z M 404.607441 217.364611 C 406.678659 220.506964 389.686028 235.373627 366.685448 250.571103 C 343.679899 265.763192 323.325267 275.558652 321.254049 272.416299 C 319.177862 269.268559 336.156017 254.375394 359.161566 239.183305 C 382.167115 223.991215 402.531254 214.216871 404.607441 217.364611 Z M 404.607441 217.364611 " stroke="#000000" stroke-width="0.348" stroke-opacity="1" stroke-miterlimit="4"/></g></g></g></g><g clip-path="url(#24a7d621b6)"><g clip-path="url(#46445cc807)"><g clip-path="url(#6a18c77211)"><g clip-path="url(#e79b86b40b)"><path fill="#000000" d="M 431.253906 533.613281 C 431.074219 534.773438 432.808594 521.707031 430.585938 538.167969 C 428.363281 554.632812 429.191406 565.789062 437.3125 584.996094 C 437.855469 586.277344 439.332031 586.875 440.613281 586.332031 C 441.898438 585.785156 442.503906 584.300781 441.960938 583.019531 C 434.089844 564.402344 433.347656 554.816406 435.539062 539.039062 C 437.726562 523.261719 436.039062 535.632812 436.222656 534.460938 C 436.410156 533.292969 436.597656 532.097656 436.804688 530.851562 C 436.992188 529.738281 437.195312 528.542969 437.417969 527.296875 C 437.253906 527.269531 437.097656 527.238281 436.9375 527.214844 C 435.398438 526.96875 433.898438 526.753906 432.429688 526.554688 C 432.210938 527.773438 432.011719 528.949219 431.828125 530.039062 C 431.625 531.261719 431.4375 532.449219 431.253906 533.613281 Z M 537.714844 457.371094 C 537.464844 457.140625 537.214844 456.921875 536.96875 456.707031 C 536.398438 456.21875 535.828125 455.765625 535.257812 455.351562 C 530.695312 452.035156 525.847656 451.214844 521.753906 452.824219 C 517.664062 454.433594 514.597656 458.113281 512.464844 462.785156 C 510.328125 467.460938 509.085938 473.238281 508.847656 479.582031 C 508.792969 480.976562 509.878906 482.144531 511.273438 482.191406 C 512.664062 482.242188 513.835938 481.152344 513.886719 479.757812 C 514.105469 473.964844 515.269531 468.773438 517.050781 464.871094 C 518.835938 460.96875 521.191406 458.457031 523.589844 457.511719 C 525.984375 456.570312 528.6875 456.816406 532.289062 459.4375 C 535.894531 462.054688 540.128906 467.15625 544.496094 475.386719 C 552.933594 491.289062 547.0625 505.097656 538.082031 512.847656 C 533.59375 516.71875 528.320312 518.921875 523.945312 519 C 519.574219 519.078125 516.175781 517.429688 514.046875 512.910156 C 509.164062 502.539062 506.03125 491.804688 500.640625 482.765625 C 495.253906 473.726562 487.277344 466.457031 473.644531 463.957031 C 466.476562 462.640625 460.113281 465.105469 455.125 469.609375 C 450.132812 474.113281 446.289062 480.5625 443.167969 487.726562 C 438.230469 499.046875 435.132812 512.222656 433.167969 522.523438 C 434.855469 522.738281 436.523438 522.980469 438.167969 523.246094 C 440.109375 513.140625 443.152344 500.363281 447.789062 489.726562 C 450.742188 482.949219 454.355469 477.085938 458.5 473.34375 C 462.644531 469.605469 467.09375 467.890625 472.726562 468.921875 C 485.058594 471.1875 491.390625 477.109375 496.308594 485.355469 C 501.222656 493.605469 504.394531 504.257812 509.488281 515.066406 C 512.382812 521.210938 518.105469 524.144531 524.027344 524.039062 C 529.949219 523.933594 536.144531 521.179688 541.378906 516.660156 C 551.847656 507.625 558.433594 490.875 548.957031 473.011719 C 545.191406 465.914062 541.453125 460.804688 537.714844 457.367188 Z M 537.714844 457.371094 " fill-opacity="1" fill-rule="evenodd"/></g></g></g></g><g clip-path="url(#7588475997)"><path fill="#000000" d="M 522.785156 293.085938 C 520.097656 285.570312 507.972656 281.773438 507.34375 281.589844 C 506.71875 281.40625 507.601562 280.519531 507.972656 278.53125 C 508.339844 276.539062 506.460938 274.84375 506.71875 274.769531 C 506.976562 274.695312 510.144531 272.964844 509.148438 270.457031 C 508.15625 267.953125 497.320312 268.949219 482.761719 269.023438 C 468.242188 269.09375 455.417969 280.777344 448.121094 287.855469 C 440.859375 294.929688 436.546875 295.296875 434.375 296.660156 C 432.199219 298.027344 427.296875 300.089844 425.859375 300.421875 C 424.421875 300.789062 424.238281 300.605469 417.53125 299.242188 C 410.785156 297.878906 401.90625 294.746094 401.132812 294.671875 C 400.320312 294.597656 398.699219 296.035156 388.492188 291.464844 C 378.246094 286.894531 361.476562 285.089844 360.480469 284.980469 C 359.484375 284.90625 362.359375 283.171875 350.972656 280.410156 C 339.585938 277.644531 339.328125 269.90625 333.394531 264.082031 C 327.460938 258.261719 309.695312 229.734375 298.675781 211.050781 C 287.65625 192.402344 271.035156 178.140625 264.402344 173.828125 C 257.769531 169.515625 245.828125 160.632812 245.828125 160.632812 C 245.828125 160.632812 262.597656 160.707031 269.15625 155.695312 C 275.71875 150.683594 273.285156 139.183594 272.84375 137.488281 C 272.402344 135.792969 272.03125 134.429688 269.785156 133.914062 C 267.535156 133.363281 268.714844 128.902344 268.605469 128.351562 C 268.53125 127.796875 267.167969 126.914062 264.035156 126.027344 C 260.902344 125.144531 257.289062 132.847656 254.34375 132.589844 C 251.394531 132.332031 250.03125 120.941406 249.585938 119.726562 C 249.144531 118.546875 248.078125 120.207031 246.527344 122.453125 C 245.019531 124.703125 241.515625 132.773438 239.15625 132.847656 C 236.835938 132.921875 236.726562 121.089844 235.65625 119.910156 C 234.589844 118.730469 232.894531 122.96875 231.34375 125.105469 C 229.835938 127.246094 230.535156 134.171875 227.035156 134.429688 C 223.53125 134.6875 223.53125 124.554688 221.652344 123.300781 C 219.773438 122.046875 219.144531 126.066406 217.523438 128.683594 C 215.902344 131.296875 215.902344 137.304688 214.023438 138.742188 C 212.144531 140.179688 210.707031 132.550781 209.527344 133.179688 C 208.347656 133.804688 205.398438 141.359375 204.515625 143.570312 C 203.632812 145.820312 201.640625 139.996094 201.566406 138.558594 C 201.53125 137.195312 197.917969 143.089844 194.527344 153.519531 C 191.101562 163.914062 193.976562 173.347656 193.976562 173.347656 C 184.726562 177.734375 180.523438 188.753906 180.523438 188.753906 C 187.15625 185.328125 198.730469 186.949219 198.730469 186.949219 C 199.355469 188.3125 204.480469 188.753906 204.480469 188.753906 C 204.480469 188.753906 200.609375 193.140625 199.097656 194.0625 C 197.585938 194.945312 196.40625 198.628906 196.332031 202.5 C 196.261719 206.371094 197.402344 215.25 201.347656 225.71875 C 205.289062 236.222656 215.683594 238.542969 215.683594 238.542969 C 210.742188 240.902344 208.976562 250.925781 208.863281 256.601562 C 208.789062 262.242188 206.101562 277.941406 203.113281 288.445312 C 200.167969 298.945312 198.289062 309.894531 201.234375 334.214844 C 204.183594 358.539062 215.128906 372.988281 219 378.441406 C 222.867188 383.894531 231.382812 389.460938 233.519531 391.375 C 235.65625 393.257812 236.285156 396.316406 236.578125 400.957031 C 236.835938 405.640625 238.714844 404.089844 243.65625 408.660156 C 248.59375 413.230469 253.898438 424.730469 254.671875 426.5 C 255.484375 428.304688 259.980469 428.746094 259.980469 428.746094 C 259.980469 428.746094 271.8125 452.515625 274.871094 457.273438 C 277.929688 462.027344 283.382812 470.28125 286.699219 472.160156 C 290.015625 474.039062 290.386719 473.671875 290.386719 473.671875 C 290.386719 473.671875 292.191406 476.914062 295.066406 480.304688 C 297.941406 483.734375 305.570312 482.921875 305.570312 482.921875 C 305.570312 482.921875 306.5625 498.988281 305.3125 507.503906 C 304.058594 516.015625 298.492188 538.535156 296.6875 542.21875 C 294.882812 545.90625 291.121094 548.964844 289.316406 549.847656 C 287.511719 550.734375 270.1875 550.660156 262.117188 550.660156 C 254.046875 550.660156 252.351562 555.046875 253.199219 554.601562 C 254.046875 554.160156 258.691406 555.671875 258.691406 555.671875 C 258.691406 555.671875 258.507812 556.113281 255.261719 559.246094 C 252.019531 562.378906 253.457031 569.011719 253.566406 567.945312 C 253.640625 566.875 257.621094 563.890625 257.621094 563.890625 C 257.621094 563.890625 258.25 568.203125 258.691406 567.023438 C 259.132812 565.84375 265.582031 563.890625 265.582031 563.890625 C 265.582031 563.890625 270.519531 563.890625 279.84375 562.636719 C 289.167969 561.382812 300.667969 558.507812 300.667969 558.507812 C 300.667969 558.507812 304.609375 561.753906 308.554688 563.519531 C 312.496094 565.328125 315.925781 563.078125 315.925781 563.078125 C 315.925781 563.078125 321.933594 565.695312 322.558594 565.070312 C 323.183594 564.441406 318.613281 560.058594 318.613281 560.058594 C 318.613281 560.058594 318.800781 558.546875 319.316406 557 C 319.867188 555.488281 318.503906 551.617188 318.503906 550.105469 C 318.503906 548.59375 319.683594 545.277344 319.683594 545.277344 C 319.683594 545.277344 327.753906 552.171875 331.328125 552.464844 C 334.90625 552.722656 334.648438 549.847656 334.648438 549.847656 L 340.800781 549.148438 C 340.800781 549.148438 340.394531 548.449219 337.890625 547.085938 C 335.382812 545.722656 331.144531 544.761719 331.144531 544.761719 C 330.59375 544.0625 319.757812 536.433594 318.503906 535.4375 C 317.25 534.445312 317.621094 524.933594 317.621094 524.933594 C 322.300781 525.191406 323 523.570312 323 523.570312 C 323.371094 519.628906 317.621094 517.304688 317.621094 517.304688 C 317.621094 517.304688 317.988281 504.996094 320.238281 498.988281 C 322.484375 492.984375 328.125 487.234375 329.304688 483.992188 C 330.480469 480.746094 328.75 471.976562 329.304688 470.722656 C 329.855469 469.46875 329.929688 470.722656 331.992188 470.722656 C 334.058594 470.722656 333.613281 471.609375 336.933594 473.414062 C 340.25 475.21875 340.359375 473.414062 338.921875 475.21875 C 337.484375 477.023438 344.042969 478.460938 344.855469 480.230469 C 345.667969 482.039062 346.957031 480.859375 348.539062 479.605469 C 350.089844 478.351562 350.53125 480.746094 350.421875 481.78125 C 350.308594 482.8125 353.515625 483.328125 353.480469 484.691406 C 353.40625 486.054688 355.433594 486.863281 358.011719 488.929688 C 360.59375 490.992188 364.128906 496.816406 364.128906 496.816406 C 364.128906 496.816406 365.972656 501.902344 366.597656 506.214844 C 367.226562 510.523438 368.664062 543.730469 368.589844 546.679688 C 368.515625 549.628906 367.410156 558.507812 358.527344 560.128906 C 349.644531 561.753906 339.253906 561.9375 333.6875 561.9375 C 328.125 561.9375 328.308594 564.628906 323.996094 566.875 C 319.683594 569.125 325.875 569.125 324.363281 569.75 C 322.851562 570.375 324.289062 571.371094 323.738281 571.8125 C 323.183594 572.253906 324.992188 572.515625 326.980469 571.628906 C 328.972656 570.746094 331.476562 573.25 331.476562 573.25 C 326.796875 575.316406 329.488281 581.433594 329.488281 581.433594 C 329.746094 577.859375 337.375 575.535156 337.375 575.535156 L 339.363281 575.535156 C 339.363281 575.535156 348.429688 575.609375 353.074219 574.726562 C 357.753906 573.839844 374.339844 570.523438 378.207031 570.523438 C 382.078125 570.523438 393.023438 575.351562 396.964844 575.535156 C 400.910156 575.71875 401.167969 572.21875 401.167969 572.21875 L 407.984375 574.355469 C 406.363281 570.929688 399.03125 569.601562 399.03125 569.601562 C 399.03125 569.601562 399.03125 569.601562 395.601562 568.089844 C 392.175781 566.582031 390.257812 563.484375 389.816406 560.792969 C 389.375 558.105469 385.503906 548.042969 385.503906 548.042969 C 385.503906 548.042969 392.398438 554.234375 395.601562 554.933594 C 398.808594 555.632812 400.027344 552.613281 400.027344 552.613281 L 404.523438 551.914062 C 403.34375 548.484375 397.152344 547.859375 397.152344 547.859375 C 397.152344 547.859375 395.34375 547.046875 393.097656 545.867188 C 390.847656 544.6875 382.335938 536.914062 382.335938 536.914062 L 381.339844 528.914062 C 381.339844 528.914062 388.160156 529.101562 388.085938 526.851562 C 388.011719 524.605469 381.339844 523.09375 381.339844 523.09375 C 381.339844 523.09375 383.148438 500.648438 385.542969 496.519531 C 387.972656 492.394531 385.726562 483.878906 385.726562 483.878906 C 385.726562 483.878906 387.863281 484.0625 393.722656 479.308594 C 399.546875 474.554688 393.722656 465.601562 396.15625 466.042969 C 398.589844 466.484375 398.847656 463.90625 398.847656 463.90625 C 398.847656 463.90625 403.046875 466.523438 406.546875 468.917969 C 410.050781 471.351562 414.507812 468.03125 414.507812 468.03125 C 414.507812 468.03125 417.753906 469.101562 423.242188 466.152344 C 428.699219 463.203125 422.542969 456.203125 422.542969 456.203125 C 422.542969 456.203125 430.246094 457.382812 432.9375 454.398438 C 435.625 451.449219 433.820312 447.320312 433.820312 447.320312 C 433.820312 447.320312 438.648438 448.574219 441.082031 444.816406 C 443.511719 441.054688 440.085938 433.683594 440.085938 433.683594 C 440.085938 433.683594 446.277344 438.367188 449.410156 436.929688 C 452.542969 435.492188 451.472656 432.984375 452.101562 433.425781 C 452.726562 433.871094 456.78125 429.226562 456.78125 425.246094 C 456.78125 421.300781 452.394531 417.175781 452.394531 417.175781 C 452.394531 417.175781 457.777344 416.546875 456.449219 412.050781 C 455.085938 407.554688 443.179688 402.984375 444.617188 400.847656 C 446.054688 398.710938 446.242188 395.652344 446.5 395.652344 C 446.757812 395.652344 448.007812 395.28125 450.550781 397.015625 C 453.058594 398.710938 456.191406 394.695312 456.191406 394.695312 C 456.191406 394.695312 453.242188 401.585938 457.1875 401.695312 C 461.128906 401.769531 463.191406 392.8125 463.191406 392.8125 C 463.191406 392.8125 465.257812 392.1875 467.0625 388.945312 C 468.867188 385.699219 465.625 375.050781 465.625 375.050781 C 465.625 375.050781 469.753906 378.734375 472.074219 378.921875 C 474.398438 379.105469 474.210938 375.160156 474.210938 375.160156 C 474.210938 375.160156 476.644531 379.546875 480.589844 379.289062 C 484.53125 379.03125 483.460938 373.464844 489.210938 371.917969 C 494.960938 370.40625 489.136719 365.171875 490.464844 361.597656 C 491.828125 357.988281 480.21875 350.210938 480.21875 350.210938 C 480.21875 350.210938 485.417969 350.210938 490.539062 349.398438 C 495.660156 348.589844 490.613281 343.761719 490.613281 343.761719 C 490.613281 343.761719 512.429688 343.023438 518.769531 341.144531 C 525.144531 339.265625 519.394531 334.878906 518.953125 334.695312 C 518.511719 334.511719 519.507812 333.257812 519.652344 328.429688 C 519.835938 323.601562 516.519531 321.058594 516.519531 321.058594 C 516.519531 321.058594 518.214844 320.800781 520.464844 317.117188 C 522.160156 314.351562 518.363281 310.113281 516.375 308.199219 C 517.957031 309.523438 520.757812 311.441406 521.71875 308.972656 C 523.082031 305.46875 518.140625 297.582031 518.140625 297.582031 C 518.140625 297.582031 525.476562 300.640625 522.785156 293.085938 Z M 233.851562 177.367188 C 232.304688 177.367188 231.050781 176.074219 231.050781 174.453125 C 231.050781 172.871094 232.304688 171.542969 233.851562 171.542969 C 235.398438 171.542969 236.652344 172.832031 236.652344 174.453125 C 236.652344 176.074219 235.398438 177.367188 233.851562 177.367188 Z M 233.851562 177.367188 " fill-opacity="1" fill-rule="nonzero"/></g><g transform="matrix(1, 0, 0, 1, 62, 308)"><g clip-path="url(#21243aeb8a)"><g fill="#ffffff" fill-opacity="1"><g transform="translate(1.346087, 60.366338)"><g><path d="M 2.421875 0 L 2.421875 -1.28125 L 8.015625 -2.1875 L 8.015625 -46.359375 L 2.421875 -47.21875 L 2.421875 -48.546875 L 20.265625 -48.546875 L 20.265625 -47.21875 L 14.6875 -46.359375 L 14.6875 -1.453125 L 32.828125 -1.453125 L 37.8125 -14.8125 L 39.453125 -14.8125 L 39.453125 0 Z M 2.421875 0 "/></g></g></g><g fill="#ffffff" fill-opacity="1"><g transform="translate(50.92885, 60.366338)"><g><path d="M 2.421875 0 L 2.421875 -1.28125 L 8.015625 -2.1875 L 8.015625 -46.359375 L 2.421875 -47.21875 L 2.421875 -48.546875 L 38.96875 -48.546875 L 38.96875 -34.65625 L 37.328125 -34.65625 L 32.65625 -47.03125 L 14.6875 -47.03125 L 14.6875 -25.1875 L 22.578125 -25.1875 L 26.15625 -33.984375 L 27.734375 -33.984375 L 27.734375 -14.8125 L 26.15625 -14.8125 L 22.515625 -23.734375 L 14.6875 -23.734375 L 14.6875 -1.453125 L 33.75 -1.453125 L 38.71875 -14.8125 L 40.296875 -14.8125 L 40.296875 0 Z M 2.421875 0 "/></g></g></g><g fill="#ffffff" fill-opacity="1"><g transform="translate(103.303289, 60.366338)"><g><path d="M 2.421875 0 L 2.421875 -1.28125 L 8.015625 -2.1875 L 8.015625 -46.359375 L 2.421875 -47.21875 L 2.421875 -48.546875 L 20.265625 -48.546875 L 20.265625 -47.21875 L 14.6875 -46.359375 L 14.6875 -24.515625 L 34.40625 -44.671875 L 27.796875 -47.21875 L 27.796875 -48.546875 L 41.8125 -48.546875 L 41.8125 -47.21875 L 36.84375 -44.671875 L 23.0625 -30.828125 L 42.484375 -2.1875 L 46.609375 -1.28125 L 46.609375 0 L 28.703125 0 L 28.703125 -1.28125 L 34.234375 -2.125 L 18.328125 -26.09375 L 14.6875 -22.390625 L 14.6875 -2.1875 L 20.265625 -1.28125 L 20.265625 0 Z M 2.421875 0 "/></g></g></g><g fill="#ffffff" fill-opacity="1"><g transform="translate(156.709444, 60.366338)"><g><path d="M 25.25 1.21875 C 20.832031 1.21875 16.960938 0.144531 13.640625 -2 C 10.328125 -4.144531 7.769531 -7.140625 5.96875 -10.984375 C 4.175781 -14.828125 3.28125 -19.257812 3.28125 -24.28125 C 3.28125 -29.289062 4.226562 -33.71875 6.125 -37.5625 C 8.03125 -41.40625 10.691406 -44.398438 14.109375 -46.546875 C 17.523438 -48.691406 21.441406 -49.765625 25.859375 -49.765625 C 30.023438 -49.765625 33.539062 -48.710938 36.40625 -46.609375 L 40.109375 -49.765625 L 41.390625 -49.765625 L 41.390625 -34.71875 L 40.109375 -34.71875 L 36.109375 -44.734375 C 33.191406 -47.160156 29.773438 -48.375 25.859375 -48.375 C 23.023438 -48.375 20.484375 -47.644531 18.234375 -46.1875 C 15.992188 -44.726562 14.234375 -42.601562 12.953125 -39.8125 C 11.679688 -37.019531 11.046875 -33.703125 11.046875 -29.859375 L 11.046875 -18.75 C 11.046875 -14.90625 11.640625 -11.585938 12.828125 -8.796875 C 14.023438 -6.003906 15.6875 -3.867188 17.8125 -2.390625 C 19.9375 -0.921875 22.414062 -0.1875 25.25 -0.1875 C 28.726562 -0.1875 31.425781 -1.253906 33.34375 -3.390625 C 35.269531 -5.535156 36.234375 -8.410156 36.234375 -12.015625 L 36.234375 -17.65625 L 30.59375 -18.515625 L 30.59375 -19.84375 L 48.734375 -19.84375 L 48.734375 -18.515625 L 43.09375 -17.65625 L 43.09375 -12.015625 C 43.09375 -9.710938 42.460938 -7.554688 41.203125 -5.546875 C 39.953125 -3.546875 37.988281 -1.914062 35.3125 -0.65625 C 32.644531 0.59375 29.289062 1.21875 25.25 1.21875 Z M 25.25 1.21875 "/></g></g></g><g fill="#ffffff" fill-opacity="1"><g transform="translate(214.66726, 60.366338)"><g><path d="M 26.15625 1.21875 C 21.75 1.21875 17.804688 0.144531 14.328125 -2 C 10.847656 -4.144531 8.132812 -7.148438 6.1875 -11.015625 C 4.25 -14.878906 3.28125 -19.300781 3.28125 -24.28125 C 3.28125 -29.25 4.25 -33.664062 6.1875 -37.53125 C 8.132812 -41.394531 10.847656 -44.398438 14.328125 -46.546875 C 17.804688 -48.691406 21.75 -49.765625 26.15625 -49.765625 C 30.5625 -49.765625 34.503906 -48.691406 37.984375 -46.546875 C 41.460938 -44.398438 44.171875 -41.394531 46.109375 -37.53125 C 48.054688 -33.664062 49.03125 -29.25 49.03125 -24.28125 C 49.03125 -19.300781 48.054688 -14.878906 46.109375 -11.015625 C 44.171875 -7.148438 41.460938 -4.144531 37.984375 -2 C 34.503906 0.144531 30.5625 1.21875 26.15625 1.21875 Z M 26.15625 -0.1875 C 29.070312 -0.1875 31.691406 -0.953125 34.015625 -2.484375 C 36.335938 -4.023438 38.164062 -6.257812 39.5 -9.1875 C 40.84375 -12.125 41.515625 -15.597656 41.515625 -19.609375 L 41.515625 -28.953125 C 41.515625 -32.953125 40.84375 -36.414062 39.5 -39.34375 C 38.164062 -42.28125 36.335938 -44.519531 34.015625 -46.0625 C 31.691406 -47.601562 29.070312 -48.375 26.15625 -48.375 C 23.195312 -48.375 20.566406 -47.601562 18.265625 -46.0625 C 15.960938 -44.519531 14.140625 -42.28125 12.796875 -39.34375 C 11.460938 -36.414062 10.796875 -32.953125 10.796875 -28.953125 L 10.796875 -19.609375 C 10.796875 -15.597656 11.460938 -12.125 12.796875 -9.1875 C 14.140625 -6.257812 15.960938 -4.023438 18.265625 -2.484375 C 20.566406 -0.953125 23.195312 -0.1875 26.15625 -0.1875 Z M 26.15625 -0.1875 "/></g></g></g><g fill="#ffffff" fill-opacity="1"><g transform="translate(275.598816, 60.366338)"><g><path d="M 2.421875 0 L 2.421875 -1.28125 L 8.015625 -2.1875 L 8.015625 -46.359375 L 2.421875 -47.21875 L 2.421875 -48.546875 L 20.265625 -48.546875 L 20.265625 -47.21875 L 14.6875 -46.359375 L 14.6875 -1.453125 L 32.828125 -1.453125 L 37.8125 -14.8125 L 39.453125 -14.8125 L 39.453125 0 Z M 2.421875 0 "/></g></g></g><g fill="#ffffff" fill-opacity="1"><g transform="translate(325.181579, 60.366338)"><g><path d="M 26.15625 1.21875 C 21.75 1.21875 17.804688 0.144531 14.328125 -2 C 10.847656 -4.144531 8.132812 -7.148438 6.1875 -11.015625 C 4.25 -14.878906 3.28125 -19.300781 3.28125 -24.28125 C 3.28125 -29.25 4.25 -33.664062 6.1875 -37.53125 C 8.132812 -41.394531 10.847656 -44.398438 14.328125 -46.546875 C 17.804688 -48.691406 21.75 -49.765625 26.15625 -49.765625 C 30.5625 -49.765625 34.503906 -48.691406 37.984375 -46.546875 C 41.460938 -44.398438 44.171875 -41.394531 46.109375 -37.53125 C 48.054688 -33.664062 49.03125 -29.25 49.03125 -24.28125 C 49.03125 -19.300781 48.054688 -14.878906 46.109375 -11.015625 C 44.171875 -7.148438 41.460938 -4.144531 37.984375 -2 C 34.503906 0.144531 30.5625 1.21875 26.15625 1.21875 Z M 26.15625 -0.1875 C 29.070312 -0.1875 31.691406 -0.953125 34.015625 -2.484375 C 36.335938 -4.023438 38.164062 -6.257812 39.5 -9.1875 C 40.84375 -12.125 41.515625 -15.597656 41.515625 -19.609375 L 41.515625 -28.953125 C 41.515625 -32.953125 40.84375 -36.414062 39.5 -39.34375 C 38.164062 -42.28125 36.335938 -44.519531 34.015625 -46.0625 C 31.691406 -47.601562 29.070312 -48.375 26.15625 -48.375 C 23.195312 -48.375 20.566406 -47.601562 18.265625 -46.0625 C 15.960938 -44.519531 14.140625 -42.28125 12.796875 -39.34375 C 11.460938 -36.414062 10.796875 -32.953125 10.796875 -28.953125 L 10.796875 -19.609375 C 10.796875 -15.597656 11.460938 -12.125 12.796875 -9.1875 C 14.140625 -6.257812 15.960938 -4.023438 18.265625 -2.484375 C 20.566406 -0.953125 23.195312 -0.1875 26.15625 -0.1875 Z M 26.15625 -0.1875 "/></g></g></g><g fill="#ffffff" fill-opacity="1"><g transform="translate(386.113159, 60.366338)"><g><path d="M 2.421875 0 L 2.421875 -1.28125 L 8.015625 -2.1875 L 8.015625 -46.359375 L 2.421875 -47.21875 L 2.421875 -48.546875 L 20.265625 -48.546875 L 20.265625 -47.21875 L 14.6875 -46.359375 L 14.6875 -24.515625 L 34.40625 -44.671875 L 27.796875 -47.21875 L 27.796875 -48.546875 L 41.8125 -48.546875 L 41.8125 -47.21875 L 36.84375 -44.671875 L 23.0625 -30.828125 L 42.484375 -2.1875 L 46.609375 -1.28125 L 46.609375 0 L 28.703125 0 L 28.703125 -1.28125 L 34.234375 -2.125 L 18.328125 -26.09375 L 14.6875 -22.390625 L 14.6875 -2.1875 L 20.265625 -1.28125 L 20.265625 0 Z M 2.421875 0 "/></g></g></g><g fill="#ffffff" fill-opacity="1"><g transform="translate(439.519315, 60.366338)"><g><path d="M 19.90625 1.21875 L 2.796875 -46.359375 L -1.28125 -47.21875 L -1.28125 -48.546875 L 15.59375 -48.546875 L 15.59375 -47.21875 L 10.078125 -46.359375 L 23.125 -10.4375 L 31.984375 -33.625 L 27.4375 -46.359375 L 21.84375 -47.21875 L 21.84375 -48.546875 L 39.875 -48.546875 L 39.875 -47.21875 L 34.65625 -46.484375 L 47.828125 -10.5 L 60.875 -44.484375 L 54.015625 -47.21875 L 54.015625 -48.546875 L 67.0625 -48.546875 L 67.0625 -47.21875 L 62.453125 -44.546875 L 45.09375 1.21875 L 44.609375 1.21875 L 32.765625 -31.5 L 20.390625 1.21875 Z M 19.90625 1.21875 "/></g></g></g><g fill="#ffffff" fill-opacity="1"><g transform="translate(513.741711, 60.366338)"><g><path d="M 2.421875 0 L 2.421875 -1.28125 L 8.015625 -2.1875 L 8.015625 -46.359375 L 2.421875 -47.21875 L 2.421875 -48.546875 L 38.96875 -48.546875 L 38.96875 -34.65625 L 37.328125 -34.65625 L 32.65625 -47.03125 L 14.6875 -47.03125 L 14.6875 -25.1875 L 22.578125 -25.1875 L 26.15625 -33.984375 L 27.734375 -33.984375 L 27.734375 -14.8125 L 26.15625 -14.8125 L 22.515625 -23.734375 L 14.6875 -23.734375 L 14.6875 -1.453125 L 33.75 -1.453125 L 38.71875 -14.8125 L 40.296875 -14.8125 L 40.296875 0 Z M 2.421875 0 "/></g></g></g><g fill="#ffffff" fill-opacity="1"><g transform="translate(566.124087, 60.366338)"><g/></g></g></g></g></g></g></svg>